<?xml version="1.0" encoding="utf-8"?>
<!-- Generator: Adobe Illustrator 19.0.1, SVG Export Plug-In . SVG Version: 6.00 Build 0)  -->
<svg version="1.1" id="Layer_1" xmlns="http://www.w3.org/2000/svg" xmlns:xlink="http://www.w3.org/1999/xlink" x="0px" y="0px"
	 viewBox="-216 261.9 178.9 270.1" style="enable-background:new -216 261.9 178.9 270.1;" xml:space="preserve">
<style type="text/css">
	.st0{fill:none;stroke:#221F1F;}
	.st1{fill:#FAB963;stroke:#221F1F;}
	.st2{fill:#6C6B85;stroke:#221F1F;}
	.st3{fill:#FFEFDF;stroke:#221F1F;}
	.st4{fill:#FFEFDF;}
	.st5{fill:#221F1F;}
</style>
<path class="st0" d="M-148.3,436.4c4.5,9.3,14.6,12.5,19.8,20.6c8.5,13.3,2.4,25.4-2.5,38.9c-2.3,6.4-7.3,12.8-6.8,19.5
	c0.5,7.3,4.5,11.4,11,9.9"/>
<path class="st0" d="M-171.5,527.1c5.6-3.2,11.6,2.7,16.7-0.1c6.8-3.7,3.4-13.3,1-18.3c-5.1-10.6-11-21.1-13.4-33
	c-3.7-18.7,9.9-25.4,15.9-41.5"/>
<path class="st1" d="M-132,266.1c8.9-1.6,19.4,7.9,24.7,14c9,10.1,10.9,21.7,10.4,34.9c-0.6,16,3.9,31.8,9.9,46.8
	c3.2,7.7,11.1,17.3,20.7,15.2c2.8,9-16.2,17.4-21.7,20.7c-6.3,3.8-12.2,7.7-18.9,10.6c-8,3.5-13.9,0.9-23.2,0.8
	c-17-0.1-40.4-10.2-48.9-26.1c-3.7-6.9-6.7-7.5-2-15.2c5.8-9.6,15.4-18.4,18.8-29.5c2.3-7.6,0.1-18.4-1-26.2
	c-1.5-10.6-3.2-17.6,0.4-28.8C-158,268.1-146,266.8-132,266.1"/>
<path class="st2" d="M-153,366.5c7.6,6.7,6.9,7.3,17.5,8c5.7,0.3,26.2,3,26.2-4.8c5.3-0.3-0.9,19.3,0.1,25.4
	c1.2,7.6,4.4,13.9,7.9,20.2c4.9,9,25,34.3,26.4,32.7c-16.6,7.7-8.6,3.1-16.6,7.7c-12,6.9-24.5,16.2-34.8,6.1
	c-18.9-4.5-26.5,0.2-40.5,0.2c-11.7,0-19.3-5.8-30.1-5.7c13.6-16.6,26.8-35.8,32.4-56.4c3-11.1,8.1-22.7,8.5-33.9"/>
<path class="st3" d="M-126.6,321.9c0.5,9-1.5,18-0.7,26.7c0.8,7.5,10.2,17.5,18,21c-5,13.5-36.3,13.3-46.7-3.8
	c8.4,0.9,18.6-14,20.9-20.2c2.7-7.2,2.4-18.1-1.3-25.2c3.7-0.4,7.8-1.7,9.6,2.1"/>
<g>
	<g>
		<path class="st4" d="M-163.6,295.1c0.9,0,1.7,0.2,2.4,0.8c3.6-11.9,14.2-20.8,27.3-21.5c13.2-0.7,24.8,7.2,29.5,18.8
			c0.3-0.1,0.6-0.2,1-0.2c2.6-0.1,4.9,2.7,5.1,6.3c0.2,3.4-1.5,6.2-4,6.7c-0.8,15.2-12.9,27.8-28.4,28.6
			c-15.9,0.9-29.6-10.9-31.4-26.5c-0.3,0.1-0.5,0.1-0.8,0.1c-2.6,0.1-4.9-2.7-5.1-6.3S-166.2,295.2-163.6,295.1z"/>
	</g>
	<g>
		<path class="st0" d="M-163.6,295.1c0.9,0,1.7,0.2,2.4,0.8c3.6-11.9,14.2-20.8,27.3-21.5c13.2-0.7,24.8,7.2,29.5,18.8
			c0.3-0.1,0.6-0.2,1-0.2c2.6-0.1,4.9,2.7,5.1,6.3c0.2,3.4-1.5,6.2-4,6.7c-0.8,15.2-12.9,27.8-28.4,28.6
			c-15.9,0.9-29.6-10.9-31.4-26.5c-0.3,0.1-0.5,0.1-0.8,0.1c-2.6,0.1-4.9-2.7-5.1-6.3S-166.2,295.2-163.6,295.1z"/>
	</g>
</g>
<path class="st0" d="M-115.3,311.3c-2.6,9.1-8,13.5-17.3,11.7c-5.9-1.1-11.7-8.6-15.7-13.8"/>
<path class="st0" d="M-122.8,303.9c0.5,2.5,0.4,5.2-0.4,7.4c-6.3,2.8-12.1-1.1-12-8.2"/>
<path class="st0" d="M-124.5,295.8c0.3-3.9,0-7.4-3.9-8.8c-3.9,2.8-3,12.5,3.9,10c0.2-0.7,0-1.3,0-1.9"/>
<path class="st5" d="M-124.7,294.6c0.2-2.5,0-4.9-2.6-5.9c-2.5,1.8-1.9,8.4,2.5,6.7c0.1-0.5,0-0.9,0-1.3"/>
<path class="st5" d="M-132.2,294.3c0.2-2.5,0-4.9-2.6-5.9c-2.5,1.8-1.9,8.4,2.5,6.7c0.1-0.5,0-0.9,0-1.3"/>
<path class="st0" d="M-132.7,296.3c0.3-3.9,0-7.4-3.9-8.8c-3.9,2.8-3,12.5,3.9,10c0.2-0.7-0.1-1.3,0-1.9"/>
<path class="st0" d="M-109.1,369c14.7,5.3,16.7,32,20,44.1c3.7,13.1-97.4-2.5-75.4-13.3"/>
<path class="st0" d="M-152.4,365.3c-17.6-1.5-24.9,29.2-26.7,41.6c2.7,10.4,89-3.4,80.7-2.9"/>
</svg>
