<?xml version="1.0" encoding="utf-8"?>
<!-- Generator: Adobe Illustrator 19.0.1, SVG Export Plug-In . SVG Version: 6.00 Build 0)  -->
<svg version="1.1" id="Layer_1" xmlns="http://www.w3.org/2000/svg" xmlns:xlink="http://www.w3.org/1999/xlink" x="0px" y="0px"
	 viewBox="-390 145.9 178.9 270.1" style="enable-background:new -390 145.9 178.9 270.1;" xml:space="preserve">
<style type="text/css">
	.st0{fill:none;stroke:#231F20;}
	.st1{fill:#FCBA63;stroke:#231F20;}
	.st2{fill:#6C6B86;stroke:#231F20;}
	.st3{fill:#FFF0DF;stroke:#231F20;}
	.st4{fill:#FFF0DF;}
	.st5{fill:#231F20;}
</style>
<path class="st0" d="M-313.6,315.5c-0.6,10.7-9,17.8-10.7,27.6c-2.8,16.1,7.9,25.3,17.9,36.3c4.8,5.2,12.1,9.3,14.3,16
	c2.4,7.2,0.2,12.7-6.6,13.9"/>
<path class="st0" d="M-284.3,311.4c-1.4,17.7-13.1,28.3-4.1,45.9c5.7,11.2,14.6,20,22.7,29.1c3.8,4.3,9.9,12.9,4.2,18.5
	c-4.3,4.2-11.9,0-16.6,4.8"/>
<path class="st1" d="M-302.3,149.2c-9.2-1.7-20.1,8.2-25.6,14.5c-9.3,10.5-11.3,22.5-10.8,36.2c0.6,16.6-4,33-10.3,48.6
	c-3.3,8-11.5,17.9-21.5,15.8c-2.9,9.3,16.8,18.1,22.5,21.5c6.5,3.9,12.7,8,19.6,11c8.3,3.6,14.4,0.9,24.1,0.8
	c17.6-0.1,41.9-10.6,50.7-27.1c3.8-7.2,6.9-7.8,2.1-15.8c-6-10-16-19.1-19.5-30.6c-2.4-7.9-0.1-19.1,1-27.2
	c1.6-11,3.3-18.3-0.4-29.9C-275.3,151.3-287.8,149.9-302.3,149.2"/>
<path class="st2" d="M-280.5,253.3c-7.9,6.9-7.2,7.6-18.2,8.3c-5.9,0.3-27.2,3.1-27.2-5c-5.5-0.3,0.9,20-0.1,26.3
	c-1.2,7.9-4.6,14.4-8.2,21c-5.1,9.3-30.6,30.1-30.8,30.8c-2.4-0.4,4.9,4.8,3.4,3.1c7.2,5.5,8.9,3.2,17.2,8
	c12.5,7.2,25.4,16.8,36.1,6.3c12.6-12.3,25.3-15.9,39.8-15.9c12.1,0,22.2,10.1,33.4,10.2c-14.1-17.2-27.8-37.1-33.6-58.5
	c-3.1-11.5-8.4-23.5-8.8-35.2"/>
<path class="st3" d="M-307.9,207.1c-0.5,9.3,1.6,18.7,0.7,27.7c-0.8,7.8-10.6,18.2-18.7,21.8c5.2,14,37.7,13.8,48.4-3.9
	c-8.7,0.9-19.3-14.5-21.7-21c-2.8-7.5-2.5-18.8,1.3-26.1c-3.8-0.4-8.1-1.8-10,2.2"/>
<g>
	<g>
		<path class="st4" d="M-269.5,179.3c-0.9,0-1.8,0.2-2.5,0.8c-3.7-12.3-14.7-21.6-28.3-22.3c-13.7-0.7-25.7,7.5-30.6,19.5
			c-0.3-0.1-0.6-0.2-1-0.2c-2.7-0.1-5.1,2.8-5.3,6.5c-0.2,3.5,1.6,6.4,4.1,6.9c0.8,15.8,13.4,28.8,29.5,29.7
			c16.5,0.9,30.7-11.3,32.6-27.5c0.3,0.1,0.5,0.1,0.8,0.1c2.7,0.1,5.1-2.8,5.3-6.5C-264.7,182.6-266.8,179.4-269.5,179.3z"/>
	</g>
	<g>
		<path class="st0" d="M-269.5,179.3c-0.9,0-1.8,0.2-2.5,0.8c-3.7-12.3-14.7-21.6-28.3-22.3c-13.7-0.7-25.7,7.5-30.6,19.5
			c-0.3-0.1-0.6-0.2-1-0.2c-2.7-0.1-5.1,2.8-5.3,6.5c-0.2,3.5,1.6,6.4,4.1,6.9c0.8,15.8,13.4,28.8,29.5,29.7
			c16.5,0.9,30.7-11.3,32.6-27.5c0.3,0.1,0.5,0.1,0.8,0.1c2.7,0.1,5.1-2.8,5.3-6.5C-264.7,182.6-266.8,179.4-269.5,179.3z"/>
	</g>
</g>
<path class="st0" d="M-322.1,199.2c2.7,9.4,14.1,12.4,20.1,12.4c8.7,0,14.2-7.7,14.9-16.3"/>
<path class="st0" d="M-311.9,188.4c-0.5,2.6-0.4,5.4,0.4,7.7c6.5,2.9,12.6-1.1,12.4-8.5"/>
<path class="st0" d="M-310.1,180c-0.3-4,0-7.7,4-9.1c4,2.9,3.1,13-4,10.4c-0.2-0.7,0-1.3,0-2"/>
<path class="st5" d="M-309.9,177.7c-0.2-2.6,0-5.1,2.7-6.1c2.6,1.9,2,8.7-2.6,6.9c-0.1-0.5,0-0.9,0-1.3"/>
<path class="st5" d="M-302.1,177.4c-0.2-2.6,0-5.1,2.7-6.1c2.6,1.9,2,8.7-2.6,6.9c-0.1-0.5,0-0.9,0-1.3"/>
<path class="st0" d="M-301.6,180.5c-0.3-4,0-7.7,4-9.1c4,2.9,3.1,13-4,10.4c-0.2-0.7,0.1-1.3,0-2"/>
<path class="st0" d="M-326.1,255.9c-15.2,5.5-17.3,33.2-20.8,45.8c-3.8,13.6-18.2,34.6-41,23.4"/>
<path class="st0" d="M-281.2,252.1c18.3-1.6,25.8,25.5,27.7,38.4c1.4,9.9,3.4,22.8,12.2,28.9c7.3,5.1,17.3,6,25.9,6.5"/>
</svg>
